<svg t="1729091828720" class="icon" viewBox="0 0 1024 1024" version="1.1" xmlns="http://www.w3.org/2000/svg" p-id="3405" width="200" height="200"><path d="M222 390m-72 0a72 72 0 1 0 144 0 72 72 0 1 0-144 0Z" p-id="3406"></path><path d="M802 390.3m-72 0a72 72 0 1 0 144 0 72 72 0 1 0-144 0Z" p-id="3407"></path><path d="M512 382.3m-72 0a72 72 0 1 0 144 0 72 72 0 1 0-144 0Z" p-id="3408"></path><path d="M512 865.1c-18.4 0-36.9-7-50.9-21.1L333 716H72c-39.7 0-72-32.3-72-72V136c0-39.7 32.3-72 72-72h880c39.7 0 72 32.3 72 72v508c0 39.7-32.3 72-72 72H691L563 844c-14.1 14.1-32.6 21.1-51 21.1zM72 136v508h290.9L512 793.1 661.1 644H952V136H72z" p-id="3409"></path></svg>