<svg t="1729092031606" class="icon" viewBox="0 0 1024 1024" version="1.1" xmlns="http://www.w3.org/2000/svg" p-id="4414" width="200" height="200"><path d="M516.071619 134.095238c181.784381 0 329.142857 147.358476 329.142857 329.142857v25.429334A97.54819 97.54819 0 0 1 926.47619 584.825905v107.422476a97.52381 97.52381 0 0 1-97.523809 97.523809h-132.729905V487.302095h75.824762V463.238095c0-141.385143-114.590476-256-256-256h-8.118857c-141.385143 0-256 114.614857-256 256v24.064h75.849143v302.470095H195.047619a97.52381 97.52381 0 0 1-97.523809-97.523809v-107.422476a97.54819 97.54819 0 0 1 81.261714-96.158476V463.238095c0-181.784381 147.358476-329.142857 329.142857-329.142857h8.143238z m31.451429 358.64381v292.571428h-71.046096v-292.571428h71.046096z m118.418285 48.761904v219.428572H594.895238v-219.428572h71.046095z m-236.836571 0v219.428572h-71.046095v-219.428572H429.104762z" p-id="4415"></path></svg>