<svg t="1729003108692" class="icon" viewBox="0 0 1024 1024" version="1.1" xmlns="http://www.w3.org/2000/svg" p-id="5879" width="200" height="200"><path d="M685.450971 125.557029H352.533943c-163.796114 0-314.748343 136.616229-314.748343 300.397714v11.702857c0 140.375771 106.671543 258.311314 237.728914 289.206857l-14.1312 106.949486c-4.096 23.625143 8.864914 47.367314 29.315657 59.904 9.406171 5.763657 21.0944 8.616229 31.656229 8.616228 12.3904 0 25.2928-8.645486 35.664457-16.413257l208.413257-160.577828h119.032686c163.796114 0 288.5632-123.860114 288.5632-287.670857v-11.702858c-0.014629-163.796114-124.767086-300.412343-288.577829-300.412342z m230.048915 312.100571c0 131.759543-98.318629 229.156571-230.048915 229.156571h-138.532571L323.466971 839.094857l20.216686-165.229714c-131.744914 0-247.3984-104.462629-247.3984-236.207543v-11.702857c0-131.730286 124.489143-241.883429 256.234057-241.883429H672.914286l3.3792 1.111772c131.744914 0 239.2064 109.041371 239.2064 240.771657v11.702857z" fill="" p-id="5880"></path><path d="M284.394057 269.487543a152.839314 152.839314 0 0 1 25.687772-2.1504 14.628571 14.628571 0 1 0 0-29.257143c-10.298514 0-20.5824 0.863086-30.602972 2.56a14.6432 14.6432 0 0 0 4.9152 28.847543zM238.211657 250.031543c-63.736686 28.525714-112.654629 96.080457-112.654628 168.096914v2.223543a14.628571 14.628571 0 1 0 29.257142 0v-2.223543c0-60.664686 41.194057-117.496686 94.559086-141.385143 7.387429-3.306057 12.975543-11.951543 9.669486-19.324343-3.306057-7.3728-13.487543-10.678857-20.831086-7.387428zM341.738057 383.956114c-36.293486 0-65.828571 29.535086-65.828571 65.828572s29.535086 65.828571 65.828571 65.828571 65.828571-29.535086 65.828572-65.828571-29.520457-65.828571-65.828572-65.828572z m0 102.4c-20.1728 0-36.571429-16.398629-36.571428-36.571428s16.398629-36.571429 36.571428-36.571429 36.571429 16.398629 36.571429 36.571429-16.398629 36.571429-36.571429 36.571428zM517.280914 383.956114c-36.293486 0-65.828571 29.535086-65.828571 65.828572s29.535086 65.828571 65.828571 65.828571 65.828571-29.535086 65.828572-65.828571-29.520457-65.828571-65.828572-65.828572z m0 102.4c-20.1728 0-36.571429-16.398629-36.571428-36.571428s16.398629-36.571429 36.571428-36.571429 36.571429 16.398629 36.571429 36.571429-16.398629 36.571429-36.571429 36.571428zM692.823771 383.956114c-36.293486 0-65.828571 29.535086-65.828571 65.828572s29.535086 65.828571 65.828571 65.828571 65.828571-29.535086 65.828572-65.828571-29.520457-65.828571-65.828572-65.828572z m0 102.4c-20.1728 0-36.571429-16.398629-36.571428-36.571428s16.398629-36.571429 36.571428-36.571429 36.571429 16.398629 36.571429 36.571429-16.398629 36.571429-36.571429 36.571428z" fill="" p-id="5881"></path></svg>