<svg t="1729001045866" class="icon" viewBox="0 0 1024 1024" version="1.1" xmlns="http://www.w3.org/2000/svg" p-id="4399" width="200" height="200"><path d="M863.3 641.94A416.1 416.1 0 0 0 96.7 318.06a416.1 416.1 0 0 0 766.6 323.88zM480 832a352 352 0 1 1 248.9-103.1A349.69 349.69 0 0 1 480 832z" p-id="4400"></path><path d="M950.63 841.37l-96-96a32 32 0 0 0-45.25 45.25l96 96a13.25 13.25 0 1 1-18.75 18.75l-96-96a32 32 0 0 0-45.25 45.25l96 96a77.25 77.25 0 1 0 109.25-109.25z" p-id="4401"></path></svg>